<svg width="120" height="249" viewBox="0 0 120 249" fill="none" xmlns="http://www.w3.org/2000/svg">
<circle cx="144.072" cy="51.7205" r="18.5" transform="rotate(123.683 144.072 51.7205)" fill="#D9D9D9"/>
<circle cx="104.685" cy="26.0703" r="18.5" transform="rotate(123.683 104.685 26.0703)" fill="#D9D9D9"/>
<circle cx="91.9391" cy="129.939" r="18.5" transform="rotate(123.683 91.9391 129.939)" fill="#D9D9D9"/>
<circle cx="129.939" cy="157.67" r="18.5" transform="rotate(123.683 129.939 157.67)" fill="#D9D9D9"/>
<circle cx="52.5523" cy="104.289" r="18.5" transform="rotate(123.683 52.5523 104.289)" fill="#D9D9D9"/>
<circle cx="118.005" cy="90.83" r="18.5" transform="rotate(123.683 118.005 90.83)" fill="#D9D9D9"/>
<circle cx="78.6186" cy="65.1798" r="18.5" transform="rotate(123.683 78.6186 65.1798)" fill="#D9D9D9"/>
<circle cx="143.26" cy="222.43" r="18.5" transform="rotate(123.683 143.26 222.43)" fill="#D9D9D9"/>
<circle cx="65.873" cy="169.049" r="18.5" transform="rotate(123.683 65.873 169.049)" fill="#D9D9D9"/>
<circle cx="103.873" cy="196.779" r="18.5" transform="rotate(123.683 103.873 196.779)" fill="#D9D9D9"/>
<circle cx="26.4861" cy="143.399" r="18.5" transform="rotate(123.683 26.4861 143.399)" fill="#D9D9D9"/>
</svg>
