<svg width="251" height="251" viewBox="0 0 251 251" fill="none" xmlns="http://www.w3.org/2000/svg">
<rect width="33.8182" height="33.8182" transform="matrix(0.888341 0.459184 0.459184 -0.888341 135.189 235.111)" fill="white" fill-opacity="0.5"/>
<rect width="33.8182" height="33.8182" transform="matrix(0.888341 0.459184 0.459184 -0.888341 181.776 144.985)" fill="white" fill-opacity="0.5"/>
<rect width="33.8182" height="33.8182" transform="matrix(0.888341 0.459184 0.459184 -0.888341 158.483 190.048)" fill="white" fill-opacity="0.5"/>
<rect width="33.8182" height="33.8182" transform="matrix(0.888341 0.459184 0.459184 -0.888341 205.069 99.9216)" fill="white" fill-opacity="0.5"/>
<rect width="33.8182" height="33.8182" transform="matrix(0.888341 0.459184 0.459184 -0.888341 45.0631 188.525)" fill="white" fill-opacity="0.5"/>
<rect width="33.8182" height="33.8182" transform="matrix(0.888341 0.459184 0.459184 -0.888341 91.6495 98.3984)" fill="white" fill-opacity="0.5"/>
<rect width="33.8182" height="33.8182" transform="matrix(0.888341 0.459184 0.459184 -0.888341 68.3563 143.461)" fill="white" fill-opacity="0.5"/>
<rect width="33.8182" height="33.8182" transform="matrix(0.888341 0.459184 0.459184 -0.888341 114.943 53.3353)" fill="white" fill-opacity="0.5"/>
<rect width="33.8182" height="33.8182" transform="matrix(0.888341 0.459184 0.459184 -0.888341 0 165.231)" fill="white" fill-opacity="0.5"/>
<rect width="33.8182" height="33.8182" transform="matrix(0.888341 0.459184 0.459184 -0.888341 46.5863 75.1053)" fill="white" fill-opacity="0.5"/>
<rect width="33.8182" height="33.8182" transform="matrix(0.888341 0.459184 0.459184 -0.888341 23.2932 120.168)" fill="white" fill-opacity="0.5"/>
<rect width="33.8182" height="33.8182" transform="matrix(0.888341 0.459184 0.459184 -0.888341 69.8795 30.0421)" fill="white" fill-opacity="0.5"/>
<rect width="33.8182" height="33.8182" transform="matrix(0.888341 0.459184 0.459184 -0.888341 90.1262 211.818)" fill="white" fill-opacity="0.5"/>
<rect width="33.8182" height="33.8182" transform="matrix(0.888341 0.459184 0.459184 -0.888341 136.713 121.692)" fill="white" fill-opacity="0.5"/>
<rect width="33.8182" height="33.8182" transform="matrix(0.888341 0.459184 0.459184 -0.888341 113.419 166.755)" fill="white" fill-opacity="0.5"/>
<rect width="33.8182" height="33.8182" transform="matrix(0.888341 0.459184 0.459184 -0.888341 160.006 76.6284)" fill="white" fill-opacity="0.5"/>
</svg>
